<svg width="174" height="174" viewBox="0 0 174 174" fill="none" xmlns="http://www.w3.org/2000/svg">
<path fill-rule="evenodd" clip-rule="evenodd" d="M75.4657 42.6048C76.2859 40.6059 78.2278 39.2976 80.3866 39.2866H55.1689C46.4229 39.2866 38.7025 44.9978 36.1432 53.3609C32.2296 66.1493 41.795 79.0799 55.1689 79.0799H75.4206L75.4189 79.0855H92.4653C96.2697 79.0855 98.8579 82.9452 97.4137 86.4648C96.6556 88.3121 94.9397 89.5696 92.9798 89.7584H117.712C126.457 89.7584 134.176 84.048 136.736 75.686C140.572 63.1509 131.457 50.4789 118.498 49.9841H80.414C76.6097 49.9841 74.0214 46.1244 75.4657 42.6048Z" fill="url(#paint0_radial)"/>
<path d="M78.7592 39.2936L79.0152 39.2946H112.389C132.721 39.2946 150.614 23.4599 156.313 0.424316H84.2489C63.9378 0.424316 46.0487 16.2974 40.3312 39.2946C38.4291 45.5606 37.2604 49.0698 35.6553 55.3471C43.3822 39.1547 60.7128 39.2227 78.7592 39.2936Z" fill="url(#paint1_linear)"/>
<path d="M136.986 74.7817C131.758 84.5471 121.363 89.2093 104.221 89.7533L60.7677 89.7533C40.2735 89.4444 22.0326 102.693 15.9877 122.278L0.285156 173.152C20.7794 173.461 39.0202 160.212 45.0651 140.627L47.3891 133.099C50.09 126.054 53.0491 122.951 62.1472 122.951H88.7587C109.254 122.951 127.292 109.427 133.036 89.7533H133.031L136.986 74.7817Z" fill="url(#paint2_linear)"/>
<defs>
<radialGradient id="paint0_radial" cx="0" cy="0" r="1" gradientUnits="userSpaceOnUse" gradientTransform="translate(86.4393 64.5348) rotate(90) scale(27.5403 40.9945)">
<stop stop-color="#1EE2C7"/>
<stop offset="1" stop-color="#158E78"/>
</radialGradient>
<linearGradient id="paint1_linear" x1="156.486" y1="20.7344" x2="49.4079" y2="31.3085" gradientUnits="userSpaceOnUse">
<stop stop-color="#1EE2B3"/>
<stop offset="1" stop-color="#59E0E9"/>
</linearGradient>
<linearGradient id="paint2_linear" x1="137.182" y1="111.16" x2="15.1594" y2="118.782" gradientUnits="userSpaceOnUse">
<stop stop-color="#1EE2B3"/>
<stop offset="1" stop-color="#59E0E9"/>
</linearGradient>
</defs>
</svg>
